<svg width="32" height="31" viewBox="0 0 32 31" fill="none" xmlns="http://www.w3.org/2000/svg">
<path fill-rule="evenodd" clip-rule="evenodd" d="M18.4856 0C23.4562 1.36582e-05 27.4856 4.02945 27.4856 9V10.6162H27.9905L28.2171 10.6221C30.54 10.7513 32.2844 12.8498 31.9495 15.1846L30.2102 27.292L30.179 27.4756C29.8324 29.291 28.2821 30.6349 26.4358 30.7197L26.2503 30.7236H5.74052L5.55497 30.7197C3.64693 30.6323 2.05464 29.1998 1.78056 27.292L0.0413001 15.1846C-0.293701 12.8496 1.45061 10.7512 3.77372 10.6221L4.00126 10.6162H4.50419V9C4.50419 4.02944 8.53363 5.15405e-07 13.5042 0H18.4856ZM4.00126 12.6162C2.78372 12.6162 1.848 13.6953 2.02079 14.9004L3.76103 27.0078C3.90248 27.9924 4.74582 28.7236 5.74052 28.7236H26.2503C27.2448 28.7234 28.0893 27.9923 28.2308 27.0078L29.97 14.9004C30.1427 13.6956 29.2076 12.6167 27.9905 12.6162H4.00126ZM13.5042 2C9.6382 2 6.50419 5.13401 6.50419 9V10.6162H25.4856V9C25.4856 5.13402 22.3516 2.00001 18.4856 2H13.5042Z" fill="#605858"/>
</svg>
